<svg id="Layer_1" data-name="Layer 1" xmlns="http://www.w3.org/2000/svg" viewBox="0 0 1000 1000"><defs><style>.cls-1,.cls-5{font-size:37.35px;font-family:SparkyDreamDemo, Sparky Dream Demo;letter-spacing:0.27em;}.cls-1{fill:#231f20;}.cls-2{letter-spacing:0.26em;}.cls-3{letter-spacing:0.27em;}.cls-4{letter-spacing:0.26em;}.cls-5{fill:#212121;}.cls-6{fill:#010101;}</style></defs><text class="cls-1" transform="translate(250.93 656.15)">EVENTS &amp; <tspan class="cls-2" x="284.36" y="0">D</tspan><tspan class="cls-3" x="320.81" y="0">ESIG</tspan><tspan class="cls-4" x="440.96" y="0">N</tspan><tspan x="478.6" y="0">S</tspan></text><text class="cls-5" transform="translate(250.93 656.15)">EVENTS &amp; <tspan class="cls-2" x="284.36" y="0">D</tspan><tspan class="cls-3" x="320.81" y="0">ESIG</tspan><tspan class="cls-4" x="440.96" y="0">N</tspan><tspan x="478.6" y="0">S</tspan></text><path class="cls-6" d="M318,489.39a3.8,3.8,0,0,1-1.29-.31l-.3-.1a5.4,5.4,0,0,1-3.57-3.32,24.71,24.71,0,0,1-1.87-8.37,64.54,64.54,0,0,1,.21-10.39c.37-3.62.78-6.86,1.22-9.63,1.5-9.35,3.52-19,6-28.63,2.53-9.83,5.19-19.74,7.91-29.48,2.76-9.89,5.4-19.9,7.86-29.75s4.45-19.92,5.86-29.63a43,43,0,0,0,.35-8.89,34.79,34.79,0,0,0-.6-4.84,48,48,0,0,0,8.18-4.9,19.78,19.78,0,0,1,1,3.24,31.44,31.44,0,0,1,.34,10.6c-1,7.12-2.31,14.35-3.87,21.41s-3.34,14.47-5.26,21.91a4,4,0,0,0,2.5,4.72,3.89,3.89,0,0,0,1.25.23c-.25.54-.49,1.09-.73,1.63-4.85,11-9.28,21.46-13.16,31.1a4,4,0,0,0-.17.49c-1.88,7.32-3.81,15-5.74,22.79-1.89,7.62-3.46,15.31-4.67,22.86a96.92,96.92,0,0,0-1.75,14.53c-.15,4.71.54,8,2.17,10.27,0,.06,0,.13,0,.22a3.74,3.74,0,0,1-.63,1.55,1.82,1.82,0,0,1-1,.65A.79.79,0,0,1,318,489.39ZM437.53,487c-3.83,0-5.45-1.55-6.33-2.7-2.42-3.17-3.93-7.41-4.49-12.59a85,85,0,0,1,.06-17.89c.67-6.38,1.44-11.84,2.28-16.21,1.47-8.29,3.18-16.23,5.1-23.66s3.92-14.92,6-22.2,4.12-14.71,6.21-22.23,4.07-15.69,5.87-24.15c.34-1.61,1.39-6.52-2-9.23a5.78,5.78,0,0,0-1.05-.66c.8-.49,1.64-1,2.53-1.42a21.71,21.71,0,0,1,5.72-2.09,12.24,12.24,0,0,1,2.23-.25,2.72,2.72,0,0,1,1.61.33,3.73,3.73,0,0,1,1.08,2.85,27.13,27.13,0,0,1-.65,7c-.6,2.88-1.16,5.41-1.65,7.58-1.81,7.62-3.73,14.86-5.68,21.46s-3.92,13.42-5.82,20.09-3.74,13.4-5.51,20.17-3.38,14.18-4.77,21.91c-.49,3.05-1.13,7.27-1.91,12.63a112.5,112.5,0,0,0-1.21,16.81,44.63,44.63,0,0,0,2.34,15c1.6,4.38,4.65,7,8.67,7.43a22.79,22.79,0,0,1-5,1.62,18.8,18.8,0,0,1-3.62.39Zm-67.46-31.9A175.54,175.54,0,0,1,373.52,428c2-10,4.44-20.17,7.16-30.34s5.48-20.51,8.21-30.65a297.29,297.29,0,0,0,6.46-29.87c.1-.59.27-1.89.51-3.89s.42-4.09.51-6.05a24,24,0,0,0-.39-5.93c-.62-3.05-2.42-4.49-4.21-4.91a19.31,19.31,0,0,1,5.48-2,12,12,0,0,1,2.17-.23,3.48,3.48,0,0,1,2.61.78,9.15,9.15,0,0,1,2.6,4.81,29.32,29.32,0,0,1,.64,8.07,79.35,79.35,0,0,1-.82,8.42c-1,6.15-2.52,13.22-4.56,21s-4.29,16-6.66,24.43-4.67,16.91-6.81,25.24-3.88,16.55-5.09,24.13a4,4,0,0,0,2.84,4.44,4.47,4.47,0,0,0,.8.14c-2.1,5.18-3.87,9.66-5.38,13.62a4.64,4.64,0,0,0-.2.73,7.46,7.46,0,0,1-1.2,1.11,24.27,24.27,0,0,1-5.13,3.06A16.05,16.05,0,0,1,370.07,455.06Z"/><path class="cls-6" d="M399.42,318h.18a5.53,5.53,0,0,1,1.18,2.52,25.71,25.71,0,0,1,.54,7,78.69,78.69,0,0,1-.78,8c-1,6-2.47,13-4.48,20.63s-4.28,16-6.64,24.36q-.69,2.42-1.36,4.83,2.34-8.7,4.66-17.33a302.41,302.41,0,0,0,6.54-30.27c.11-.66.27-1.87.54-4.06s.43-4.27.52-6.34a27.58,27.58,0,0,0-.46-6.91,12.4,12.4,0,0,0-.74-2.39h.3m-53.93,9.52a28.7,28.7,0,0,1-.09,6.91c-1,7.07-2.27,14.17-3.81,21.1s-3.32,14.4-5.23,21.78a7.92,7.92,0,0,0,2.39,7.89c-4.53,10.33-8.69,20.18-12.37,29.3a6.73,6.73,0,0,0-.32,1c-1.87,7.28-3.81,15-5.76,22.82-.75,3-1.46,6.1-2.11,9.15,1.16-5.9,2.52-11.87,4.06-17.84,2.52-9.77,5.17-19.66,7.89-29.4,2.77-9.94,5.43-20,7.89-29.86a303.8,303.8,0,0,0,5.93-30,47,47,0,0,0,.39-9.72c0-.8-.11-1.6-.2-2.39.45-.25.9-.5,1.34-.76m112.94,8.24a25.14,25.14,0,0,1-.59,5.23c-.57,2.71-1.12,5.23-1.63,7.48-1.81,7.59-3.7,14.74-5.63,21.26S446.8,382.69,445,389q2.55-9.13,5.15-18.49c2.12-7.64,4.12-15.85,5.93-24.39q1.21-5.7-.53-9.52a15.09,15.09,0,0,1,2.65-.81l.24-.05M439,410.9c-1.72,6.68-3.28,13.89-4.64,21.43,0,.05,0,.1,0,.15-.49,3-1.13,7.28-1.91,12.6a117.87,117.87,0,0,0-1.25,17.41,48.44,48.44,0,0,0,2.58,16.39,18.12,18.12,0,0,0,2,3.91,2.4,2.4,0,0,1-1.41-.94c-2-2.59-3.21-6.15-3.7-10.6a81.86,81.86,0,0,1,.07-17.06c.66-6.27,1.41-11.61,2.23-15.87,0,0,0-.08,0-.12,1.44-8.13,3.13-16,5-23.3.35-1.34.69-2.67,1-4m-59.22,6.71c-.93,4.36-1.73,8.61-2.39,12.7a7.94,7.94,0,0,0,2.51,7.13c-1.52,3.8-2.85,7.21-4,10.3h0l-.15.12c-.41.32-.84.63-1.28.92a176.77,176.77,0,0,1,2.94-20.05c.75-3.68,1.55-7.4,2.4-11.13m19.62-107.52a15.65,15.65,0,0,0-2.92.3q-6.83,1.32-13.66,7.56a97,97,0,0,0-13.53,15.68A206.91,206.91,0,0,0,356.19,355Q349.77,366.9,344,379.3q2.89-11.24,5.3-22t3.93-21.78a35.19,35.19,0,0,0-.4-11.94,21.36,21.36,0,0,0-3.77-8.38,44.44,44.44,0,0,1-14,8.56,29.11,29.11,0,0,1,1.32,7.38,39.1,39.1,0,0,1-.31,8.11,294.26,294.26,0,0,1-5.79,29.24q-3.69,14.83-7.83,29.65t-7.93,29.55q-3.79,14.75-6.08,29c-.46,2.88-.87,6.17-1.25,9.86a69,69,0,0,0-.22,11,28.21,28.21,0,0,0,2.19,9.71,9.35,9.35,0,0,0,6,5.53,7.71,7.71,0,0,0,2.74.58,4.6,4.6,0,0,0,1.62-.28,5.73,5.73,0,0,0,2.88-2.12,7.78,7.78,0,0,0,1.28-3.17,4.05,4.05,0,0,0-.43-2.85q-1.86-2.15-1.67-8.15a93.23,93.23,0,0,1,1.7-14q1.8-11.22,4.6-22.54t5.74-22.75q5.85-14.52,13.12-31T361.7,355.7a183.45,183.45,0,0,1,15-24.23q7.41-9.9,13.6-11.31l.29,0c.74,0,1.24.62,1.5,1.87a20.56,20.56,0,0,1,.31,5c-.08,1.9-.25,3.81-.48,5.74s-.4,3.18-.49,3.76a293.08,293.08,0,0,1-6.37,29.46q-4.1,15.22-8.22,30.66t-7.21,30.57a177.12,177.12,0,0,0-3.59,29.23c-.16,1.91.61,2.87,2.31,2.87h.21a16.89,16.89,0,0,0,6.1-1.59,28.08,28.08,0,0,0,6-3.56c1.77-1.39,2.65-2.57,2.67-3.55q2.65-7,6.46-16.3t8.45-19.73q4.65-10.41,9.88-21t10.75-20.38a191.81,191.81,0,0,1,11.46-17.9,87.45,87.45,0,0,1,11.86-13.48c2.09-1.88,3.66-2.82,4.73-2.82a1.35,1.35,0,0,1,.86.28q1.46,1.19.57,5.32-2.69,12.66-5.81,23.92t-6.2,22.22q-3.09,11-6,22.28t-5.15,23.9q-1.31,6.74-2.33,16.55a88.92,88.92,0,0,0-.06,18.73q1,8.91,5.28,14.56c2.16,2.84,5.33,4.26,9.48,4.26a22.67,22.67,0,0,0,4.38-.46q8.4-1.62,18.84-10.33A3.79,3.79,0,0,0,462.2,478a2.73,2.73,0,0,0-.36-1.92,2,2,0,0,0-1.61-.94H460a3.51,3.51,0,0,0-2.17,1q-5.3,4.17-8.93,4.87a9.37,9.37,0,0,1-1.46.12c-3,0-5.07-1.64-6.26-4.9a40.6,40.6,0,0,1-2.1-13.72,108.89,108.89,0,0,1,1.17-16.22q1.2-8.18,1.89-12.49,2.07-11.49,4.71-21.62T452.37,392q2.83-10,5.81-20t5.75-21.71c.49-2.18,1.05-4.73,1.66-7.64a30.93,30.93,0,0,0,.73-8,7.71,7.71,0,0,0-2.41-5.6,6.19,6.19,0,0,0-4.24-1.33,16,16,0,0,0-3,.32,25.72,25.72,0,0,0-6.78,2.46,38.35,38.35,0,0,0-6.38,4.06,81.73,81.73,0,0,0-16.94,17.7A231.12,231.12,0,0,0,411,376.93q-7.45,13.45-14,27.8t-11.68,26.83q1.8-11.21,5-23.76T397,382.65q3.56-12.61,6.68-24.51t4.64-21.39a82.41,82.41,0,0,0,.87-8.84,33.37,33.37,0,0,0-.74-9.17,13.12,13.12,0,0,0-3.76-6.8,7.45,7.45,0,0,0-5.31-1.85Z"/><path class="cls-6" d="M318,489.39a3.8,3.8,0,0,1-1.29-.31l-.3-.1a5.4,5.4,0,0,1-3.57-3.32,24.71,24.71,0,0,1-1.87-8.37,64.54,64.54,0,0,1,.21-10.39c.37-3.62.78-6.86,1.22-9.63,1.5-9.35,3.52-19,6-28.63,2.53-9.83,5.19-19.74,7.91-29.48,2.76-9.89,5.4-19.9,7.86-29.75s4.45-19.92,5.86-29.63a43,43,0,0,0,.35-8.89,34.79,34.79,0,0,0-.6-4.84,48,48,0,0,0,8.18-4.9,19.78,19.78,0,0,1,1,3.24,31.44,31.44,0,0,1,.34,10.6c-1,7.12-2.31,14.35-3.87,21.41s-3.34,14.47-5.26,21.91a4,4,0,0,0,2.5,4.72,3.89,3.89,0,0,0,1.25.23c-.25.54-.49,1.09-.73,1.63-4.85,11-9.28,21.46-13.16,31.1a4,4,0,0,0-.17.49c-1.88,7.32-3.81,15-5.74,22.79-1.89,7.62-3.46,15.31-4.67,22.86a96.92,96.92,0,0,0-1.75,14.53c-.15,4.71.54,8,2.17,10.27,0,.06,0,.13,0,.22a3.74,3.74,0,0,1-.63,1.55,1.82,1.82,0,0,1-1,.65A.79.79,0,0,1,318,489.39ZM437.53,487c-3.83,0-5.45-1.55-6.33-2.7-2.42-3.17-3.93-7.41-4.49-12.59a85,85,0,0,1,.06-17.89c.67-6.38,1.44-11.84,2.28-16.21,1.47-8.29,3.18-16.23,5.1-23.66s3.92-14.92,6-22.2,4.12-14.71,6.21-22.23,4.07-15.69,5.87-24.15c.34-1.61,1.39-6.52-2-9.23a5.78,5.78,0,0,0-1.05-.66c.8-.49,1.64-1,2.53-1.42a21.71,21.71,0,0,1,5.72-2.09,12.24,12.24,0,0,1,2.23-.25,2.72,2.72,0,0,1,1.61.33,3.73,3.73,0,0,1,1.08,2.85,27.13,27.13,0,0,1-.65,7c-.6,2.88-1.16,5.41-1.65,7.58-1.81,7.62-3.73,14.86-5.68,21.46s-3.92,13.42-5.82,20.09-3.74,13.4-5.51,20.17-3.38,14.18-4.77,21.91c-.49,3.05-1.13,7.27-1.91,12.63a112.5,112.5,0,0,0-1.21,16.81,44.63,44.63,0,0,0,2.34,15c1.6,4.38,4.65,7,8.67,7.43a22.79,22.79,0,0,1-5,1.62,18.8,18.8,0,0,1-3.62.39Zm-67.46-31.9A175.54,175.54,0,0,1,373.52,428c2-10,4.44-20.17,7.16-30.34s5.48-20.51,8.21-30.65a297.29,297.29,0,0,0,6.46-29.87c.1-.59.27-1.89.51-3.89s.42-4.09.51-6.05a24,24,0,0,0-.39-5.93c-.62-3.05-2.42-4.49-4.21-4.91a19.31,19.31,0,0,1,5.48-2,12,12,0,0,1,2.17-.23,3.48,3.48,0,0,1,2.61.78,9.15,9.15,0,0,1,2.6,4.81,29.32,29.32,0,0,1,.64,8.07,79.35,79.35,0,0,1-.82,8.42c-1,6.15-2.52,13.22-4.56,21s-4.29,16-6.66,24.43-4.67,16.91-6.81,25.24-3.88,16.55-5.09,24.13a4,4,0,0,0,2.84,4.44,4.47,4.47,0,0,0,.8.14c-2.1,5.18-3.87,9.66-5.38,13.62a4.64,4.64,0,0,0-.2.73,7.46,7.46,0,0,1-1.2,1.11,24.27,24.27,0,0,1-5.13,3.06A16.05,16.05,0,0,1,370.07,455.06Z"/><path class="cls-6" d="M399.42,318h.18a5.53,5.53,0,0,1,1.18,2.52,25.71,25.71,0,0,1,.54,7,78.69,78.69,0,0,1-.78,8c-1,6-2.47,13-4.48,20.63s-4.28,16-6.64,24.36q-.69,2.42-1.36,4.83,2.34-8.7,4.66-17.33a302.41,302.41,0,0,0,6.54-30.27c.11-.66.27-1.87.54-4.06s.43-4.27.52-6.34a27.58,27.58,0,0,0-.46-6.91,12.4,12.4,0,0,0-.74-2.39h.3m-53.93,9.52a28.7,28.7,0,0,1-.09,6.91c-1,7.07-2.27,14.17-3.81,21.1s-3.32,14.4-5.23,21.78a7.92,7.92,0,0,0,2.39,7.89c-4.53,10.33-8.69,20.18-12.37,29.3a6.73,6.73,0,0,0-.32,1c-1.87,7.28-3.81,15-5.76,22.82-.75,3-1.46,6.1-2.11,9.15,1.16-5.9,2.52-11.87,4.06-17.84,2.52-9.77,5.17-19.66,7.89-29.4,2.77-9.94,5.43-20,7.89-29.86a303.8,303.8,0,0,0,5.93-30,47,47,0,0,0,.39-9.72c0-.8-.11-1.6-.2-2.39.45-.25.9-.5,1.34-.76m112.94,8.24a25.14,25.14,0,0,1-.59,5.23c-.57,2.71-1.12,5.23-1.63,7.48-1.81,7.59-3.7,14.74-5.63,21.26S446.8,382.69,445,389q2.55-9.13,5.15-18.49c2.12-7.64,4.12-15.85,5.93-24.39q1.21-5.7-.53-9.52a15.09,15.09,0,0,1,2.65-.81l.24-.05M439,410.9c-1.72,6.68-3.28,13.89-4.64,21.43,0,.05,0,.1,0,.15-.49,3-1.13,7.28-1.91,12.6a117.87,117.87,0,0,0-1.25,17.41,48.44,48.44,0,0,0,2.58,16.39,18.12,18.12,0,0,0,2,3.91,2.4,2.4,0,0,1-1.41-.94c-2-2.59-3.21-6.15-3.7-10.6a81.86,81.86,0,0,1,.07-17.06c.66-6.27,1.41-11.61,2.23-15.87,0,0,0-.08,0-.12,1.44-8.13,3.13-16,5-23.3.35-1.34.69-2.67,1-4m-59.22,6.71c-.93,4.36-1.73,8.61-2.39,12.7a7.94,7.94,0,0,0,2.51,7.13c-1.52,3.8-2.85,7.21-4,10.3h0l-.15.12c-.41.32-.84.63-1.28.92a176.77,176.77,0,0,1,2.94-20.05c.75-3.68,1.55-7.4,2.4-11.13m19.62-107.52a15.65,15.65,0,0,0-2.92.3q-6.83,1.32-13.66,7.56a97,97,0,0,0-13.53,15.68A206.91,206.91,0,0,0,356.19,355Q349.77,366.9,344,379.3q2.89-11.24,5.3-22t3.93-21.78a35.19,35.19,0,0,0-.4-11.94,21.36,21.36,0,0,0-3.77-8.38,44.44,44.44,0,0,1-14,8.56,29.11,29.11,0,0,1,1.32,7.38,39.1,39.1,0,0,1-.31,8.11,294.26,294.26,0,0,1-5.79,29.24q-3.69,14.83-7.83,29.65t-7.93,29.55q-3.79,14.75-6.08,29c-.46,2.88-.87,6.17-1.25,9.86a69,69,0,0,0-.22,11,28.21,28.21,0,0,0,2.19,9.71,9.35,9.35,0,0,0,6,5.53,7.71,7.71,0,0,0,2.74.58,4.6,4.6,0,0,0,1.62-.28,5.73,5.73,0,0,0,2.88-2.12,7.78,7.78,0,0,0,1.28-3.17,4.05,4.05,0,0,0-.43-2.85q-1.86-2.15-1.67-8.15a93.23,93.23,0,0,1,1.7-14q1.8-11.22,4.6-22.54t5.74-22.75q5.85-14.52,13.12-31T361.7,355.7a183.45,183.45,0,0,1,15-24.23q7.41-9.9,13.6-11.31l.29,0c.74,0,1.24.62,1.5,1.87a20.56,20.56,0,0,1,.31,5c-.08,1.9-.25,3.81-.48,5.74s-.4,3.18-.49,3.76a293.08,293.08,0,0,1-6.37,29.46q-4.1,15.22-8.22,30.66t-7.21,30.57a177.12,177.12,0,0,0-3.59,29.23c-.16,1.91.61,2.87,2.31,2.87h.21a16.89,16.89,0,0,0,6.1-1.59,28.08,28.08,0,0,0,6-3.56c1.77-1.39,2.65-2.57,2.67-3.55q2.65-7,6.46-16.3t8.45-19.73q4.65-10.41,9.88-21t10.75-20.38a191.81,191.81,0,0,1,11.46-17.9,87.45,87.45,0,0,1,11.86-13.48c2.09-1.88,3.66-2.82,4.73-2.82a1.35,1.35,0,0,1,.86.28q1.46,1.19.57,5.32-2.69,12.66-5.81,23.92t-6.2,22.22q-3.09,11-6,22.28t-5.15,23.9q-1.31,6.74-2.33,16.55a88.92,88.92,0,0,0-.06,18.73q1,8.91,5.28,14.56c2.16,2.84,5.33,4.26,9.48,4.26a22.67,22.67,0,0,0,4.38-.46q8.4-1.62,18.84-10.33A3.79,3.79,0,0,0,462.2,478a2.73,2.73,0,0,0-.36-1.92,2,2,0,0,0-1.61-.94H460a3.51,3.51,0,0,0-2.17,1q-5.3,4.17-8.93,4.87a9.37,9.37,0,0,1-1.46.12c-3,0-5.07-1.64-6.26-4.9a40.6,40.6,0,0,1-2.1-13.72,108.89,108.89,0,0,1,1.17-16.22q1.2-8.18,1.89-12.49,2.07-11.49,4.71-21.62T452.37,392q2.83-10,5.81-20t5.75-21.71c.49-2.18,1.05-4.73,1.66-7.64a30.93,30.93,0,0,0,.73-8,7.71,7.71,0,0,0-2.41-5.6,6.19,6.19,0,0,0-4.24-1.33,16,16,0,0,0-3,.32,25.72,25.72,0,0,0-6.78,2.46,38.35,38.35,0,0,0-6.38,4.06,81.73,81.73,0,0,0-16.94,17.7A231.12,231.12,0,0,0,411,376.93q-7.45,13.45-14,27.8t-11.68,26.83q1.8-11.21,5-23.76T397,382.65q3.56-12.61,6.68-24.51t4.64-21.39a82.41,82.41,0,0,0,.87-8.84,33.37,33.37,0,0,0-.74-9.17,13.12,13.12,0,0,0-3.76-6.8,7.45,7.45,0,0,0-5.31-1.85Z"/><path class="cls-6" d="M185.69,351.35a23.63,23.63,0,0,0-3.07,7.64,10.24,10.24,0,0,0,1.07,7.62,11.31,11.31,0,0,0,6.31,4.33c.62.23,1.29.36,1.94.54a10.73,10.73,0,0,0,1.91.24,32.75,32.75,0,0,0,4.07-.09,126.46,126.46,0,0,0,16.5-2.74c5.48-1.21,10.91-2.64,16.32-4.13A440.86,440.86,0,0,0,294,341.71c10.21-4.61,20.12-9.83,29.81-15.33q7.28-4.11,14.38-8.46c1.18-.72,2.37-1.45,3.54-2.2l.88-.56c.29-.18.7-.45,1.08-.66a12.57,12.57,0,0,1,2.81-1.23,7.44,7.44,0,0,1,2.07-.32,6.19,6.19,0,0,1,2.8.6,6,6,0,0,1,2.27,1.94,7.56,7.56,0,0,1,1,2,11.62,11.62,0,0,1,.48,3.1,21.28,21.28,0,0,1-.08,2.56,55.83,55.83,0,0,1-1.71,8.91c-.78,2.82-1.66,5.57-2.58,8.29-1.84,5.44-3.95,10.73-6.14,16-4.44,10.46-9.28,20.71-14.69,30.69l-.73-.32c3.55-10.75,7.19-21.43,10.56-32.16,1.69-5.35,3.29-10.73,4.75-16.09.71-2.68,1.37-5.37,1.91-8a48.67,48.67,0,0,0,1.14-7.76,13,13,0,0,0,0-1.67,4,4,0,0,0-.2-1.07c0-.07-.05,0,0,.11a1.87,1.87,0,0,0,.68.57,2,2,0,0,0,.74.21c.12,0,.1,0,0,0a5.6,5.6,0,0,0-1,.53c-.22.13-.41.26-.7.46l-.89.6c-1.19.81-2.39,1.6-3.59,2.39-4.81,3.12-9.78,6-14.82,8.69-10.12,5.35-20.58,9.93-31.1,14.26a452,452,0,0,1-64.81,20.94q-8.28,2-16.69,3.44a130,130,0,0,1-17,2,34.14,34.14,0,0,1-4.39-.11,11.91,11.91,0,0,1-2.26-.4c-.71-.23-1.42-.4-2.11-.69a13.13,13.13,0,0,1-7.08-5.45,10.26,10.26,0,0,1-1.28-4.38,14.43,14.43,0,0,1,.46-4.41A24.71,24.71,0,0,1,185,350.9Z"/><path class="cls-6" d="M640.25,393.75a2.32,2.32,0,0,1,2.66,1.77c.28,1.37-.31,2.21-1.79,2.51q-6.35,1.29-16.86,6.21t-18.85,9.68q-8.32,4.77-22.16,13-31,18.3-44.71,24.48t-24.65,4.56l-.26,1q-4.41,13-9.76,20t-10.26,7.32a14.67,14.67,0,0,1-9.34-2.48,23.37,23.37,0,0,1-7.53-8.3,38,38,0,0,1-4.31-11.33,65.74,65.74,0,0,1-.23-26.38q2.57-12.66,6.68-16.57,2.94-2.91,10.24-1.78Q492,405.86,500,404.23t12.66,2.18q4.68,3.81,5.75,11.27a68.67,68.67,0,0,1,.31,15.84,98,98,0,0,1-3.23,17.33q9.16,1.2,22.19-4.6t46.52-25.39Q624.91,396.88,640.25,393.75Zm-147.38,84.9q3.39-.69,7.6-7.54a77.85,77.85,0,0,0,7.42-16.72,30.43,30.43,0,0,1-16.88-15q-4.36,19.32-1.92,31.27Q490.8,479.07,492.87,478.65ZM509.4,449q4.22-17,1.54-30.12-2.1-10.32-5.7-9.13t-5.19,10q-2.87,13,2.24,22.28A17.61,17.61,0,0,0,509.4,449Z"/><path class="cls-6" d="M669.69,426.7q-12.18,5.16-17.77,7.69,1.11-26.19.48-51.1a8.07,8.07,0,0,0-4.33-7,10.77,10.77,0,0,0-8-1.67c-2.55.57-4.18,1.85-4.91,3.84a121,121,0,0,0-1,15.8q-.23,11.34-.19,27.31t0,21.67A249.13,249.13,0,0,0,605,461.1a185.19,185.19,0,0,0-25.72,22.29,143.49,143.49,0,0,0-20,26A93.34,93.34,0,0,0,548,538.7a78.82,78.82,0,0,0,0,31.65,87.78,87.78,0,0,0,2.41,9.19,60.13,60.13,0,0,0,4.62,10.2,39,39,0,0,0,7.25,9.58,26.61,26.61,0,0,0,10.8,5.86,29.82,29.82,0,0,0,14.67.39,44,44,0,0,0,21.09-11.13A73.27,73.27,0,0,0,625,572a212.76,212.76,0,0,0,11.48-29.22,243.94,243.94,0,0,0,7.9-34.34q3-18.75,4.72-34.91t2.6-33.57q7.27-3.44,20.28-9.05A15.14,15.14,0,0,1,669.69,426.7Zm-36.6,44.95q-.54,10.94-2,25.84t-3.65,27.7a229.51,229.51,0,0,1-6.08,26.29,127.39,127.39,0,0,1-9.08,23.28,62.35,62.35,0,0,1-12.77,16.89,34.58,34.58,0,0,1-16.76,9,14.49,14.49,0,0,1-12.78-3.54,34.53,34.53,0,0,1-9.25-12.56,81.57,81.57,0,0,1-5.29-16.89,73,73,0,0,1,0-29.11,86.22,86.22,0,0,1,10.23-27.05A137.58,137.58,0,0,1,584,487.27a179.92,179.92,0,0,1,23.44-21.06,233.26,233.26,0,0,1,26.33-17Q633.63,460.71,633.09,471.65Z"/><path class="cls-6" d="M644.29,368.35A8.49,8.49,0,0,0,651,358.23a8.51,8.51,0,0,0-3.67-5.55,8.16,8.16,0,0,0-6.48-1.29,8.73,8.73,0,0,0-6.81,10.3,8.15,8.15,0,0,0,3.72,5.46A8.57,8.57,0,0,0,644.29,368.35Z"/><path class="cls-6" d="M318,489.39a3.8,3.8,0,0,1-1.29-.31l-.3-.1a5.4,5.4,0,0,1-3.57-3.32,24.71,24.71,0,0,1-1.87-8.37,64.54,64.54,0,0,1,.21-10.39c.37-3.62.78-6.86,1.22-9.63,1.5-9.35,3.52-19,6-28.63,2.53-9.83,5.19-19.74,7.91-29.48,2.76-9.89,5.4-19.9,7.86-29.75s4.45-19.92,5.86-29.63a43,43,0,0,0,.35-8.89,34.79,34.79,0,0,0-.6-4.84,48,48,0,0,0,8.18-4.9,19.78,19.78,0,0,1,1,3.24,31.44,31.44,0,0,1,.34,10.6c-1,7.12-2.31,14.35-3.87,21.41s-3.34,14.47-5.26,21.91a4,4,0,0,0,2.5,4.72,3.89,3.89,0,0,0,1.25.23c-.25.54-.49,1.09-.73,1.63-4.85,11-9.28,21.46-13.16,31.1a4,4,0,0,0-.17.49c-1.88,7.32-3.81,15-5.74,22.79-1.89,7.62-3.46,15.31-4.67,22.86a96.92,96.92,0,0,0-1.75,14.53c-.15,4.71.54,8,2.17,10.27,0,.06,0,.13,0,.22a3.74,3.74,0,0,1-.63,1.55,1.82,1.82,0,0,1-1,.65A.79.79,0,0,1,318,489.39ZM437.53,487c-3.83,0-5.45-1.55-6.33-2.7-2.42-3.17-3.93-7.41-4.49-12.59a85,85,0,0,1,.06-17.89c.67-6.38,1.44-11.84,2.28-16.21,1.47-8.29,3.18-16.23,5.1-23.66s3.92-14.92,6-22.2,4.12-14.71,6.21-22.23,4.07-15.69,5.87-24.15c.34-1.61,1.39-6.52-2-9.23a5.78,5.78,0,0,0-1.05-.66c.8-.49,1.64-1,2.53-1.42a21.71,21.71,0,0,1,5.72-2.09,12.24,12.24,0,0,1,2.23-.25,2.72,2.72,0,0,1,1.61.33,3.73,3.73,0,0,1,1.08,2.85,27.13,27.13,0,0,1-.65,7c-.6,2.88-1.16,5.41-1.65,7.58-1.81,7.62-3.73,14.86-5.68,21.46s-3.92,13.42-5.82,20.09-3.74,13.4-5.51,20.17-3.38,14.18-4.77,21.91c-.49,3.05-1.13,7.27-1.91,12.63a112.5,112.5,0,0,0-1.21,16.81,44.63,44.63,0,0,0,2.34,15c1.6,4.38,4.65,7,8.67,7.43a22.79,22.79,0,0,1-5,1.62,18.8,18.8,0,0,1-3.62.39Zm-67.46-31.9A175.54,175.54,0,0,1,373.52,428c2-10,4.44-20.17,7.16-30.34s5.48-20.51,8.21-30.65a297.29,297.29,0,0,0,6.46-29.87c.1-.59.27-1.89.51-3.89s.42-4.09.51-6.05a24,24,0,0,0-.39-5.93c-.62-3.05-2.42-4.49-4.21-4.91a19.31,19.31,0,0,1,5.48-2,12,12,0,0,1,2.17-.23,3.48,3.48,0,0,1,2.61.78,9.15,9.15,0,0,1,2.6,4.81,29.32,29.32,0,0,1,.64,8.07,79.35,79.35,0,0,1-.82,8.42c-1,6.15-2.52,13.22-4.56,21s-4.29,16-6.66,24.43-4.67,16.91-6.81,25.24-3.88,16.55-5.09,24.13a4,4,0,0,0,2.84,4.44,4.47,4.47,0,0,0,.8.14c-2.1,5.18-3.87,9.66-5.38,13.62a4.64,4.64,0,0,0-.2.73,7.46,7.46,0,0,1-1.2,1.11,24.27,24.27,0,0,1-5.13,3.06A16.05,16.05,0,0,1,370.07,455.06Z"/><path class="cls-6" d="M399.42,318h.18a5.53,5.53,0,0,1,1.18,2.52,25.71,25.71,0,0,1,.54,7,78.69,78.69,0,0,1-.78,8c-1,6-2.47,13-4.48,20.63s-4.28,16-6.64,24.36q-.69,2.42-1.36,4.83,2.34-8.7,4.66-17.33a302.41,302.41,0,0,0,6.54-30.27c.11-.66.27-1.87.54-4.06s.43-4.27.52-6.34a27.58,27.58,0,0,0-.46-6.91,12.4,12.4,0,0,0-.74-2.39h.3m-53.93,9.52a28.7,28.7,0,0,1-.09,6.91c-1,7.07-2.27,14.17-3.81,21.1s-3.32,14.4-5.23,21.78a7.92,7.92,0,0,0,2.39,7.89c-4.53,10.33-8.69,20.18-12.37,29.3a6.73,6.73,0,0,0-.32,1c-1.87,7.28-3.81,15-5.76,22.82-.75,3-1.46,6.1-2.11,9.15,1.16-5.9,2.52-11.87,4.06-17.84,2.52-9.77,5.17-19.66,7.89-29.4,2.77-9.94,5.43-20,7.89-29.86a303.8,303.8,0,0,0,5.93-30,47,47,0,0,0,.39-9.72c0-.8-.11-1.6-.2-2.39.45-.25.9-.5,1.34-.76m112.94,8.24a25.14,25.14,0,0,1-.59,5.23c-.57,2.71-1.12,5.23-1.63,7.48-1.81,7.59-3.7,14.74-5.63,21.26S446.8,382.69,445,389q2.55-9.13,5.15-18.49c2.12-7.64,4.12-15.85,5.93-24.39q1.21-5.7-.53-9.52a15.09,15.09,0,0,1,2.65-.81l.24-.05M439,410.9c-1.72,6.68-3.28,13.89-4.64,21.43,0,.05,0,.1,0,.15-.49,3-1.13,7.28-1.91,12.6a117.87,117.87,0,0,0-1.25,17.41,48.44,48.44,0,0,0,2.58,16.39,18.12,18.12,0,0,0,2,3.91,2.4,2.4,0,0,1-1.41-.94c-2-2.59-3.21-6.15-3.7-10.6a81.86,81.86,0,0,1,.07-17.06c.66-6.27,1.41-11.61,2.23-15.87,0,0,0-.08,0-.12,1.44-8.13,3.13-16,5-23.3.35-1.34.69-2.67,1-4m-59.22,6.71c-.93,4.36-1.73,8.61-2.39,12.7a7.94,7.94,0,0,0,2.51,7.13c-1.52,3.8-2.85,7.21-4,10.3h0l-.15.12c-.41.32-.84.63-1.28.92a176.77,176.77,0,0,1,2.94-20.05c.75-3.68,1.55-7.4,2.4-11.13m19.62-107.52a15.65,15.65,0,0,0-2.92.3q-6.83,1.32-13.66,7.56a97,97,0,0,0-13.53,15.68A206.91,206.91,0,0,0,356.19,355Q349.77,366.9,344,379.3q2.89-11.24,5.3-22t3.93-21.78a35.19,35.19,0,0,0-.4-11.94,21.36,21.36,0,0,0-3.77-8.38,44.44,44.44,0,0,1-14,8.56,29.11,29.11,0,0,1,1.32,7.38,39.1,39.1,0,0,1-.31,8.11,294.26,294.26,0,0,1-5.79,29.24q-3.69,14.83-7.83,29.65t-7.93,29.55q-3.79,14.75-6.08,29c-.46,2.88-.87,6.17-1.25,9.86a69,69,0,0,0-.22,11,28.21,28.21,0,0,0,2.19,9.71,9.35,9.35,0,0,0,6,5.53,7.71,7.71,0,0,0,2.74.58,4.6,4.6,0,0,0,1.62-.28,5.73,5.73,0,0,0,2.88-2.12,7.78,7.78,0,0,0,1.28-3.17,4.05,4.05,0,0,0-.43-2.85q-1.86-2.15-1.67-8.15a93.23,93.23,0,0,1,1.7-14q1.8-11.22,4.6-22.54t5.74-22.75q5.85-14.52,13.12-31T361.7,355.7a183.45,183.45,0,0,1,15-24.23q7.41-9.9,13.6-11.31l.29,0c.74,0,1.24.62,1.5,1.87a20.56,20.56,0,0,1,.31,5c-.08,1.9-.25,3.81-.48,5.74s-.4,3.18-.49,3.76a293.08,293.08,0,0,1-6.37,29.46q-4.1,15.22-8.22,30.66t-7.21,30.57a177.12,177.12,0,0,0-3.59,29.23c-.16,1.91.61,2.87,2.31,2.87h.21a16.89,16.89,0,0,0,6.1-1.59,28.08,28.08,0,0,0,6-3.56c1.77-1.39,2.65-2.57,2.67-3.55q2.65-7,6.46-16.3t8.45-19.73q4.65-10.41,9.88-21t10.75-20.38a191.81,191.81,0,0,1,11.46-17.9,87.45,87.45,0,0,1,11.86-13.48c2.09-1.88,3.66-2.82,4.73-2.82a1.35,1.35,0,0,1,.86.28q1.46,1.19.57,5.32-2.69,12.66-5.81,23.92t-6.2,22.22q-3.09,11-6,22.28t-5.15,23.9q-1.31,6.74-2.33,16.55a88.92,88.92,0,0,0-.06,18.73q1,8.91,5.28,14.56c2.16,2.84,5.33,4.26,9.48,4.26a22.67,22.67,0,0,0,4.38-.46q8.4-1.62,18.84-10.33A3.79,3.79,0,0,0,462.2,478a2.73,2.73,0,0,0-.36-1.92,2,2,0,0,0-1.61-.94H460a3.51,3.51,0,0,0-2.17,1q-5.3,4.17-8.93,4.87a9.37,9.37,0,0,1-1.46.12c-3,0-5.07-1.64-6.26-4.9a40.6,40.6,0,0,1-2.1-13.72,108.89,108.89,0,0,1,1.17-16.22q1.2-8.18,1.89-12.49,2.07-11.49,4.71-21.62T452.37,392q2.83-10,5.81-20t5.75-21.71c.49-2.18,1.05-4.73,1.66-7.64a30.93,30.93,0,0,0,.73-8,7.71,7.71,0,0,0-2.41-5.6,6.19,6.19,0,0,0-4.24-1.33,16,16,0,0,0-3,.32,25.72,25.72,0,0,0-6.78,2.46,38.35,38.35,0,0,0-6.38,4.06,81.73,81.73,0,0,0-16.94,17.7A231.12,231.12,0,0,0,411,376.93q-7.45,13.45-14,27.8t-11.68,26.83q1.8-11.21,5-23.76T397,382.65q3.56-12.61,6.68-24.51t4.64-21.39a82.41,82.41,0,0,0,.87-8.84,33.37,33.37,0,0,0-.74-9.17,13.12,13.12,0,0,0-3.76-6.8,7.45,7.45,0,0,0-5.31-1.85Z"/><path class="cls-6" d="M318,489.39a3.8,3.8,0,0,1-1.29-.31l-.3-.1a5.4,5.4,0,0,1-3.57-3.32,24.71,24.71,0,0,1-1.87-8.37,64.54,64.54,0,0,1,.21-10.39c.37-3.62.78-6.86,1.22-9.63,1.5-9.35,3.52-19,6-28.63,2.53-9.83,5.19-19.74,7.91-29.48,2.76-9.89,5.4-19.9,7.86-29.75s4.45-19.92,5.86-29.63a43,43,0,0,0,.35-8.89,34.79,34.79,0,0,0-.6-4.84,48,48,0,0,0,8.18-4.9,19.78,19.78,0,0,1,1,3.24,31.44,31.44,0,0,1,.34,10.6c-1,7.12-2.31,14.35-3.87,21.41s-3.34,14.47-5.26,21.91a4,4,0,0,0,2.5,4.72,3.89,3.89,0,0,0,1.25.23c-.25.54-.49,1.09-.73,1.63-4.85,11-9.28,21.46-13.16,31.1a4,4,0,0,0-.17.49c-1.88,7.32-3.81,15-5.74,22.79-1.89,7.62-3.46,15.31-4.67,22.86a96.92,96.92,0,0,0-1.75,14.53c-.15,4.71.54,8,2.17,10.27,0,.06,0,.13,0,.22a3.74,3.74,0,0,1-.63,1.55,1.82,1.82,0,0,1-1,.65A.79.79,0,0,1,318,489.39ZM437.53,487c-3.83,0-5.45-1.55-6.33-2.7-2.42-3.17-3.93-7.41-4.49-12.59a85,85,0,0,1,.06-17.89c.67-6.38,1.44-11.84,2.28-16.21,1.47-8.29,3.18-16.23,5.1-23.66s3.92-14.92,6-22.2,4.12-14.71,6.21-22.23,4.07-15.69,5.87-24.15c.34-1.61,1.39-6.52-2-9.23a5.78,5.78,0,0,0-1.05-.66c.8-.49,1.64-1,2.53-1.42a21.71,21.71,0,0,1,5.72-2.09,12.24,12.24,0,0,1,2.23-.25,2.72,2.72,0,0,1,1.61.33,3.73,3.73,0,0,1,1.08,2.85,27.13,27.13,0,0,1-.65,7c-.6,2.88-1.16,5.41-1.65,7.58-1.81,7.62-3.73,14.86-5.68,21.46s-3.92,13.42-5.82,20.09-3.74,13.4-5.51,20.17-3.38,14.18-4.77,21.91c-.49,3.05-1.13,7.27-1.91,12.63a112.5,112.5,0,0,0-1.21,16.81,44.63,44.63,0,0,0,2.34,15c1.6,4.38,4.65,7,8.67,7.43a22.79,22.79,0,0,1-5,1.62,18.8,18.8,0,0,1-3.62.39Zm-67.46-31.9A175.54,175.54,0,0,1,373.52,428c2-10,4.44-20.17,7.16-30.34s5.48-20.51,8.21-30.65a297.29,297.29,0,0,0,6.46-29.87c.1-.59.27-1.89.51-3.89s.42-4.09.51-6.05a24,24,0,0,0-.39-5.93c-.62-3.05-2.42-4.49-4.21-4.91a19.31,19.31,0,0,1,5.48-2,12,12,0,0,1,2.17-.23,3.48,3.48,0,0,1,2.61.78,9.15,9.15,0,0,1,2.6,4.81,29.32,29.32,0,0,1,.64,8.07,79.35,79.35,0,0,1-.82,8.42c-1,6.15-2.52,13.22-4.56,21s-4.29,16-6.66,24.43-4.67,16.91-6.81,25.24-3.88,16.55-5.09,24.13a4,4,0,0,0,2.84,4.44,4.47,4.47,0,0,0,.8.14c-2.1,5.18-3.87,9.66-5.38,13.62a4.64,4.64,0,0,0-.2.73,7.46,7.46,0,0,1-1.2,1.11,24.27,24.27,0,0,1-5.13,3.06A16.05,16.05,0,0,1,370.07,455.06Z"/><path class="cls-6" d="M399.42,318h.18a5.53,5.53,0,0,1,1.18,2.52,25.71,25.71,0,0,1,.54,7,78.69,78.69,0,0,1-.78,8c-1,6-2.47,13-4.48,20.63s-4.28,16-6.64,24.36q-.69,2.42-1.36,4.83,2.34-8.7,4.66-17.33a302.41,302.41,0,0,0,6.54-30.27c.11-.66.27-1.87.54-4.06s.43-4.27.52-6.34a27.58,27.58,0,0,0-.46-6.91,12.4,12.4,0,0,0-.74-2.39h.3m-53.93,9.52a28.7,28.7,0,0,1-.09,6.91c-1,7.07-2.27,14.17-3.81,21.1s-3.32,14.4-5.23,21.78a7.92,7.92,0,0,0,2.39,7.89c-4.53,10.33-8.69,20.18-12.37,29.3a6.73,6.73,0,0,0-.32,1c-1.87,7.28-3.81,15-5.76,22.82-.75,3-1.46,6.1-2.11,9.15,1.16-5.9,2.52-11.87,4.06-17.84,2.52-9.77,5.17-19.66,7.89-29.4,2.77-9.94,5.43-20,7.89-29.86a303.8,303.8,0,0,0,5.93-30,47,47,0,0,0,.39-9.72c0-.8-.11-1.6-.2-2.39.45-.25.9-.5,1.34-.76m112.94,8.24a25.14,25.14,0,0,1-.59,5.23c-.57,2.71-1.12,5.23-1.63,7.48-1.81,7.59-3.7,14.74-5.63,21.26S446.8,382.69,445,389q2.55-9.13,5.15-18.49c2.12-7.64,4.12-15.85,5.93-24.39q1.21-5.7-.53-9.52a15.09,15.09,0,0,1,2.65-.81l.24-.05M439,410.9c-1.72,6.68-3.28,13.89-4.64,21.43,0,.05,0,.1,0,.15-.49,3-1.13,7.28-1.91,12.6a117.87,117.87,0,0,0-1.25,17.41,48.44,48.44,0,0,0,2.58,16.39,18.12,18.12,0,0,0,2,3.91,2.4,2.4,0,0,1-1.41-.94c-2-2.59-3.21-6.15-3.7-10.6a81.86,81.86,0,0,1,.07-17.06c.66-6.27,1.41-11.61,2.23-15.87,0,0,0-.08,0-.12,1.44-8.13,3.13-16,5-23.3.35-1.34.69-2.67,1-4m-59.22,6.71c-.93,4.36-1.73,8.61-2.39,12.7a7.94,7.94,0,0,0,2.51,7.13c-1.52,3.8-2.85,7.21-4,10.3h0l-.15.12c-.41.32-.84.63-1.28.92a176.77,176.77,0,0,1,2.94-20.05c.75-3.68,1.55-7.4,2.4-11.13m19.62-107.52a15.65,15.65,0,0,0-2.92.3q-6.83,1.32-13.66,7.56a97,97,0,0,0-13.53,15.68A206.91,206.91,0,0,0,356.19,355Q349.77,366.9,344,379.3q2.89-11.24,5.3-22t3.93-21.78a35.19,35.19,0,0,0-.4-11.94,21.36,21.36,0,0,0-3.77-8.38,44.44,44.44,0,0,1-14,8.56,29.11,29.11,0,0,1,1.32,7.38,39.1,39.1,0,0,1-.31,8.11,294.26,294.26,0,0,1-5.79,29.24q-3.69,14.83-7.83,29.65t-7.93,29.55q-3.79,14.75-6.08,29c-.46,2.88-.87,6.17-1.25,9.86a69,69,0,0,0-.22,11,28.21,28.21,0,0,0,2.19,9.71,9.35,9.35,0,0,0,6,5.53,7.71,7.71,0,0,0,2.74.58,4.6,4.6,0,0,0,1.62-.28,5.73,5.73,0,0,0,2.88-2.12,7.78,7.78,0,0,0,1.28-3.17,4.05,4.05,0,0,0-.43-2.85q-1.86-2.15-1.67-8.15a93.23,93.23,0,0,1,1.7-14q1.8-11.22,4.6-22.54t5.74-22.75q5.85-14.52,13.12-31T361.7,355.7a183.45,183.45,0,0,1,15-24.23q7.41-9.9,13.6-11.31l.29,0c.74,0,1.24.62,1.5,1.87a20.56,20.56,0,0,1,.31,5c-.08,1.9-.25,3.81-.48,5.74s-.4,3.18-.49,3.76a293.08,293.08,0,0,1-6.37,29.46q-4.1,15.22-8.22,30.66t-7.21,30.57a177.12,177.12,0,0,0-3.59,29.23c-.16,1.91.61,2.87,2.31,2.87h.21a16.89,16.89,0,0,0,6.1-1.59,28.08,28.08,0,0,0,6-3.56c1.77-1.39,2.65-2.57,2.67-3.55q2.65-7,6.46-16.3t8.45-19.73q4.65-10.41,9.88-21t10.75-20.38a191.81,191.81,0,0,1,11.46-17.9,87.45,87.45,0,0,1,11.86-13.48c2.09-1.88,3.66-2.82,4.73-2.82a1.35,1.35,0,0,1,.86.28q1.46,1.19.57,5.32-2.69,12.66-5.81,23.92t-6.2,22.22q-3.09,11-6,22.28t-5.15,23.9q-1.31,6.74-2.33,16.55a88.92,88.92,0,0,0-.06,18.73q1,8.91,5.28,14.56c2.16,2.84,5.33,4.26,9.48,4.26a22.67,22.67,0,0,0,4.38-.46q8.4-1.62,18.84-10.33A3.79,3.79,0,0,0,462.2,478a2.73,2.73,0,0,0-.36-1.92,2,2,0,0,0-1.61-.94H460a3.51,3.51,0,0,0-2.17,1q-5.3,4.17-8.93,4.87a9.37,9.37,0,0,1-1.46.12c-3,0-5.07-1.64-6.26-4.9a40.6,40.6,0,0,1-2.1-13.72,108.89,108.89,0,0,1,1.17-16.22q1.2-8.18,1.89-12.49,2.07-11.49,4.71-21.62T452.37,392q2.83-10,5.81-20t5.75-21.71c.49-2.18,1.05-4.73,1.66-7.64a30.93,30.93,0,0,0,.73-8,7.71,7.71,0,0,0-2.41-5.6,6.19,6.19,0,0,0-4.24-1.33,16,16,0,0,0-3,.32,25.72,25.72,0,0,0-6.78,2.46,38.35,38.35,0,0,0-6.38,4.06,81.73,81.73,0,0,0-16.94,17.7A231.12,231.12,0,0,0,411,376.93q-7.45,13.45-14,27.8t-11.68,26.83q1.8-11.21,5-23.76T397,382.65q3.56-12.61,6.68-24.51t4.64-21.39a82.41,82.41,0,0,0,.87-8.84,33.37,33.37,0,0,0-.74-9.17,13.12,13.12,0,0,0-3.76-6.8,7.45,7.45,0,0,0-5.31-1.85Z"/><path class="cls-6" d="M318,489.39a3.8,3.8,0,0,1-1.29-.31l-.3-.1a5.4,5.4,0,0,1-3.57-3.32,24.71,24.71,0,0,1-1.87-8.37,64.54,64.54,0,0,1,.21-10.39c.37-3.62.78-6.86,1.22-9.63,1.5-9.35,3.52-19,6-28.63,2.53-9.83,5.19-19.74,7.91-29.48,2.76-9.89,5.4-19.9,7.86-29.75s4.45-19.92,5.86-29.63a43,43,0,0,0,.35-8.89,34.79,34.79,0,0,0-.6-4.84,48,48,0,0,0,8.18-4.9,19.78,19.78,0,0,1,1,3.24,31.44,31.44,0,0,1,.34,10.6c-1,7.12-2.31,14.35-3.87,21.41s-3.34,14.47-5.26,21.91a4,4,0,0,0,2.5,4.72,3.89,3.89,0,0,0,1.25.23c-.25.54-.49,1.09-.73,1.63-4.85,11-9.28,21.46-13.16,31.1a4,4,0,0,0-.17.49c-1.88,7.32-3.81,15-5.74,22.79-1.89,7.62-3.46,15.31-4.67,22.86a96.92,96.92,0,0,0-1.75,14.53c-.15,4.71.54,8,2.17,10.27,0,.06,0,.13,0,.22a3.74,3.74,0,0,1-.63,1.55,1.82,1.82,0,0,1-1,.65A.79.79,0,0,1,318,489.39ZM437.53,487c-3.83,0-5.45-1.55-6.33-2.7-2.42-3.17-3.93-7.41-4.49-12.59a85,85,0,0,1,.06-17.89c.67-6.38,1.44-11.84,2.28-16.21,1.47-8.29,3.18-16.23,5.1-23.66s3.92-14.92,6-22.2,4.12-14.71,6.21-22.23,4.07-15.69,5.87-24.15c.34-1.61,1.39-6.52-2-9.23a5.78,5.78,0,0,0-1.05-.66c.8-.49,1.64-1,2.53-1.42a21.71,21.71,0,0,1,5.72-2.09,12.24,12.24,0,0,1,2.23-.25,2.72,2.72,0,0,1,1.61.33,3.73,3.73,0,0,1,1.08,2.85,27.13,27.13,0,0,1-.65,7c-.6,2.88-1.16,5.41-1.65,7.58-1.81,7.62-3.73,14.86-5.68,21.46s-3.92,13.42-5.82,20.09-3.74,13.4-5.51,20.17-3.38,14.18-4.77,21.91c-.49,3.05-1.13,7.27-1.91,12.63a112.5,112.5,0,0,0-1.21,16.81,44.63,44.63,0,0,0,2.34,15c1.6,4.38,4.65,7,8.67,7.43a22.79,22.79,0,0,1-5,1.62,18.8,18.8,0,0,1-3.62.39Zm-67.46-31.9A175.54,175.54,0,0,1,373.52,428c2-10,4.44-20.17,7.16-30.34s5.48-20.51,8.21-30.65a297.29,297.29,0,0,0,6.46-29.87c.1-.59.27-1.89.51-3.89s.42-4.09.51-6.05a24,24,0,0,0-.39-5.93c-.62-3.05-2.42-4.49-4.21-4.91a19.31,19.31,0,0,1,5.48-2,12,12,0,0,1,2.17-.23,3.48,3.48,0,0,1,2.61.78,9.15,9.15,0,0,1,2.6,4.81,29.32,29.32,0,0,1,.64,8.07,79.35,79.35,0,0,1-.82,8.42c-1,6.15-2.52,13.22-4.56,21s-4.29,16-6.66,24.43-4.67,16.91-6.81,25.24-3.88,16.55-5.09,24.13a4,4,0,0,0,2.84,4.44,4.47,4.47,0,0,0,.8.14c-2.1,5.18-3.87,9.66-5.38,13.62a4.64,4.64,0,0,0-.2.73,7.46,7.46,0,0,1-1.2,1.11,24.27,24.27,0,0,1-5.13,3.06A16.05,16.05,0,0,1,370.07,455.06Z"/><path class="cls-6" d="M399.42,318h.18a5.53,5.53,0,0,1,1.18,2.52,25.71,25.71,0,0,1,.54,7,78.69,78.69,0,0,1-.78,8c-1,6-2.47,13-4.48,20.63s-4.28,16-6.64,24.36q-.69,2.42-1.36,4.83,2.34-8.7,4.66-17.33a302.41,302.41,0,0,0,6.54-30.27c.11-.66.27-1.87.54-4.06s.43-4.27.52-6.34a27.58,27.58,0,0,0-.46-6.91,12.4,12.4,0,0,0-.74-2.39h.3m-53.93,9.52a28.7,28.7,0,0,1-.09,6.91c-1,7.07-2.27,14.17-3.81,21.1s-3.32,14.4-5.23,21.78a7.92,7.92,0,0,0,2.39,7.89c-4.53,10.33-8.69,20.18-12.37,29.3a6.73,6.73,0,0,0-.32,1c-1.87,7.28-3.81,15-5.76,22.82-.75,3-1.46,6.1-2.11,9.15,1.16-5.9,2.52-11.87,4.06-17.84,2.52-9.77,5.17-19.66,7.89-29.4,2.77-9.94,5.43-20,7.89-29.86a303.8,303.8,0,0,0,5.93-30,47,47,0,0,0,.39-9.72c0-.8-.11-1.6-.2-2.39.45-.25.9-.5,1.34-.76m112.94,8.24a25.14,25.14,0,0,1-.59,5.23c-.57,2.71-1.12,5.23-1.63,7.48-1.81,7.59-3.7,14.74-5.63,21.26S446.8,382.69,445,389q2.55-9.13,5.15-18.49c2.12-7.64,4.12-15.85,5.93-24.39q1.21-5.7-.53-9.52a15.09,15.09,0,0,1,2.65-.81l.24-.05M439,410.9c-1.72,6.68-3.28,13.89-4.64,21.43,0,.05,0,.1,0,.15-.49,3-1.13,7.28-1.91,12.6a117.87,117.87,0,0,0-1.25,17.41,48.44,48.44,0,0,0,2.58,16.39,18.12,18.12,0,0,0,2,3.91,2.4,2.4,0,0,1-1.41-.94c-2-2.59-3.21-6.15-3.7-10.6a81.86,81.86,0,0,1,.07-17.06c.66-6.27,1.41-11.61,2.23-15.87,0,0,0-.08,0-.12,1.44-8.13,3.13-16,5-23.3.35-1.34.69-2.67,1-4m-59.22,6.71c-.93,4.36-1.73,8.61-2.39,12.7a7.94,7.94,0,0,0,2.51,7.13c-1.52,3.8-2.85,7.21-4,10.3h0l-.15.12c-.41.32-.84.63-1.28.92a176.77,176.77,0,0,1,2.94-20.05c.75-3.68,1.55-7.4,2.4-11.13m19.62-107.52a15.65,15.65,0,0,0-2.92.3q-6.83,1.32-13.66,7.56a97,97,0,0,0-13.53,15.68A206.91,206.91,0,0,0,356.19,355Q349.77,366.9,344,379.3q2.89-11.24,5.3-22t3.93-21.78a35.19,35.19,0,0,0-.4-11.94,21.36,21.36,0,0,0-3.77-8.38,44.44,44.44,0,0,1-14,8.56,29.11,29.11,0,0,1,1.32,7.38,39.1,39.1,0,0,1-.31,8.11,294.26,294.26,0,0,1-5.79,29.24q-3.69,14.83-7.83,29.65t-7.93,29.55q-3.79,14.75-6.08,29c-.46,2.88-.87,6.17-1.25,9.86a69,69,0,0,0-.22,11,28.21,28.21,0,0,0,2.19,9.71,9.35,9.35,0,0,0,6,5.53,7.71,7.71,0,0,0,2.74.58,4.6,4.6,0,0,0,1.62-.28,5.73,5.73,0,0,0,2.88-2.12,7.78,7.78,0,0,0,1.28-3.17,4.05,4.05,0,0,0-.43-2.85q-1.86-2.15-1.67-8.15a93.23,93.23,0,0,1,1.7-14q1.8-11.22,4.6-22.54t5.74-22.75q5.85-14.52,13.12-31T361.7,355.7a183.45,183.45,0,0,1,15-24.23q7.41-9.9,13.6-11.31l.29,0c.74,0,1.24.62,1.5,1.87a20.56,20.56,0,0,1,.31,5c-.08,1.9-.25,3.81-.48,5.74s-.4,3.18-.49,3.76a293.08,293.08,0,0,1-6.37,29.46q-4.1,15.22-8.22,30.66t-7.21,30.57a177.12,177.12,0,0,0-3.59,29.23c-.16,1.91.61,2.87,2.31,2.87h.21a16.89,16.89,0,0,0,6.1-1.59,28.08,28.08,0,0,0,6-3.56c1.77-1.39,2.65-2.57,2.67-3.55q2.65-7,6.46-16.3t8.45-19.73q4.65-10.41,9.88-21t10.75-20.38a191.81,191.81,0,0,1,11.46-17.9,87.45,87.45,0,0,1,11.86-13.48c2.09-1.88,3.66-2.82,4.73-2.82a1.35,1.35,0,0,1,.86.28q1.46,1.19.57,5.32-2.69,12.66-5.81,23.92t-6.2,22.22q-3.09,11-6,22.28t-5.15,23.9q-1.31,6.74-2.33,16.55a88.92,88.92,0,0,0-.06,18.73q1,8.91,5.28,14.56c2.16,2.84,5.33,4.26,9.48,4.26a22.67,22.67,0,0,0,4.38-.46q8.4-1.62,18.84-10.33A3.79,3.79,0,0,0,462.2,478a2.73,2.73,0,0,0-.36-1.92,2,2,0,0,0-1.61-.94H460a3.51,3.51,0,0,0-2.17,1q-5.3,4.17-8.93,4.87a9.37,9.37,0,0,1-1.46.12c-3,0-5.07-1.64-6.26-4.9a40.6,40.6,0,0,1-2.1-13.72,108.89,108.89,0,0,1,1.17-16.22q1.2-8.18,1.89-12.49,2.07-11.49,4.71-21.62T452.37,392q2.83-10,5.81-20t5.75-21.71c.49-2.18,1.05-4.73,1.66-7.64a30.93,30.93,0,0,0,.73-8,7.71,7.71,0,0,0-2.41-5.6,6.19,6.19,0,0,0-4.24-1.33,16,16,0,0,0-3,.32,25.72,25.72,0,0,0-6.78,2.46,38.35,38.35,0,0,0-6.38,4.06,81.73,81.73,0,0,0-16.94,17.7A231.12,231.12,0,0,0,411,376.93q-7.45,13.45-14,27.8t-11.68,26.83q1.8-11.21,5-23.76T397,382.65q3.56-12.61,6.68-24.51t4.64-21.39a82.41,82.41,0,0,0,.87-8.84,33.37,33.37,0,0,0-.74-9.17,13.12,13.12,0,0,0-3.76-6.8,7.45,7.45,0,0,0-5.31-1.85Z"/><path class="cls-6" d="M185.69,351.35a23.63,23.63,0,0,0-3.07,7.64,10.24,10.24,0,0,0,1.07,7.62,11.31,11.31,0,0,0,6.31,4.33c.62.23,1.29.36,1.94.54a10.73,10.73,0,0,0,1.91.24,32.75,32.75,0,0,0,4.07-.09,126.46,126.46,0,0,0,16.5-2.74c5.48-1.21,10.91-2.64,16.32-4.13A440.86,440.86,0,0,0,294,341.71c10.21-4.61,20.12-9.83,29.81-15.33q7.28-4.11,14.38-8.46c1.18-.72,2.37-1.45,3.54-2.2l.88-.56c.29-.18.7-.45,1.08-.66a12.57,12.57,0,0,1,2.81-1.23,7.44,7.44,0,0,1,2.07-.32,6.19,6.19,0,0,1,2.8.6,6,6,0,0,1,2.27,1.94,7.56,7.56,0,0,1,1,2,11.62,11.62,0,0,1,.48,3.1,21.28,21.28,0,0,1-.08,2.56,55.83,55.83,0,0,1-1.71,8.91c-.78,2.82-1.66,5.57-2.58,8.29-1.84,5.44-3.95,10.73-6.14,16-4.44,10.46-9.28,20.71-14.69,30.69l-.73-.32c3.55-10.75,7.19-21.43,10.56-32.16,1.69-5.35,3.29-10.73,4.75-16.09.71-2.68,1.37-5.37,1.91-8a48.67,48.67,0,0,0,1.14-7.76,13,13,0,0,0,0-1.67,4,4,0,0,0-.2-1.07c0-.07-.05,0,0,.11a1.87,1.87,0,0,0,.68.57,2,2,0,0,0,.74.21c.12,0,.1,0,0,0a5.6,5.6,0,0,0-1,.53c-.22.13-.41.26-.7.46l-.89.6c-1.19.81-2.39,1.6-3.59,2.39-4.81,3.12-9.78,6-14.82,8.69-10.12,5.35-20.58,9.93-31.1,14.26a452,452,0,0,1-64.81,20.94q-8.28,2-16.69,3.44a130,130,0,0,1-17,2,34.14,34.14,0,0,1-4.39-.11,11.91,11.91,0,0,1-2.26-.4c-.71-.23-1.42-.4-2.11-.69a13.13,13.13,0,0,1-7.08-5.45,10.26,10.26,0,0,1-1.28-4.38,14.43,14.43,0,0,1,.46-4.41A24.71,24.71,0,0,1,185,350.9Z"/><path class="cls-6" d="M640.25,393.75a2.32,2.32,0,0,1,2.66,1.77c.28,1.37-.31,2.21-1.79,2.51q-6.35,1.29-16.86,6.21t-18.85,9.68q-8.32,4.77-22.16,13-31,18.3-44.71,24.48t-24.65,4.56l-.26,1q-4.41,13-9.76,20t-10.26,7.32a14.67,14.67,0,0,1-9.34-2.48,23.37,23.37,0,0,1-7.53-8.3,38,38,0,0,1-4.31-11.33,65.74,65.74,0,0,1-.23-26.38q2.57-12.66,6.68-16.57,2.94-2.91,10.24-1.78Q492,405.86,500,404.23t12.66,2.18q4.68,3.81,5.75,11.27a68.67,68.67,0,0,1,.31,15.84,98,98,0,0,1-3.23,17.33q9.16,1.2,22.19-4.6t46.52-25.39Q624.91,396.88,640.25,393.75Zm-147.38,84.9q3.39-.69,7.6-7.54a77.85,77.85,0,0,0,7.42-16.72,30.43,30.43,0,0,1-16.88-15q-4.36,19.32-1.92,31.27Q490.8,479.07,492.87,478.65ZM509.4,449q4.22-17,1.54-30.12-2.1-10.32-5.7-9.13t-5.19,10q-2.87,13,2.24,22.28A17.61,17.61,0,0,0,509.4,449Z"/><path class="cls-6" d="M669.69,426.7q-12.18,5.16-17.77,7.69,1.11-26.19.48-51.1a8.07,8.07,0,0,0-4.33-7,10.77,10.77,0,0,0-8-1.67c-2.55.57-4.18,1.85-4.91,3.84a121,121,0,0,0-1,15.8q-.23,11.34-.19,27.31t0,21.67A249.13,249.13,0,0,0,605,461.1a185.19,185.19,0,0,0-25.72,22.29,143.49,143.49,0,0,0-20,26A93.34,93.34,0,0,0,548,538.7a78.82,78.82,0,0,0,0,31.65,87.78,87.78,0,0,0,2.41,9.19,60.13,60.13,0,0,0,4.62,10.2,39,39,0,0,0,7.25,9.58,26.61,26.61,0,0,0,10.8,5.86,29.82,29.82,0,0,0,14.67.39,44,44,0,0,0,21.09-11.13A73.27,73.27,0,0,0,625,572a212.76,212.76,0,0,0,11.48-29.22,243.94,243.94,0,0,0,7.9-34.34q3-18.75,4.72-34.91t2.6-33.57q7.27-3.44,20.28-9.05A15.14,15.14,0,0,1,669.69,426.7Zm-36.6,44.95q-.54,10.94-2,25.84t-3.65,27.7a229.51,229.51,0,0,1-6.08,26.29,127.39,127.39,0,0,1-9.08,23.28,62.35,62.35,0,0,1-12.77,16.89,34.58,34.58,0,0,1-16.76,9,14.49,14.49,0,0,1-12.78-3.54,34.53,34.53,0,0,1-9.25-12.56,81.57,81.57,0,0,1-5.29-16.89,73,73,0,0,1,0-29.11,86.22,86.22,0,0,1,10.23-27.05A137.58,137.58,0,0,1,584,487.27a179.92,179.92,0,0,1,23.44-21.06,233.26,233.26,0,0,1,26.33-17Q633.63,460.71,633.09,471.65Z"/><path class="cls-6" d="M644.29,368.35A8.49,8.49,0,0,0,651,358.23a8.51,8.51,0,0,0-3.67-5.55,8.16,8.16,0,0,0-6.48-1.29,8.73,8.73,0,0,0-6.81,10.3,8.15,8.15,0,0,0,3.72,5.46A8.57,8.57,0,0,0,644.29,368.35Z"/><path class="cls-6" d="M809.2,322.32a12.77,12.77,0,0,1,5.37,2.55,11.85,11.85,0,0,1,3.52,4.91,17.65,17.65,0,0,1-.07,11.93v0l0,.06a50.81,50.81,0,0,1-16.46,20.45l-5.14,4c-1.71,1.34-3.48,2.58-5.22,3.88L785.92,374l-5.34,3.72a504.86,504.86,0,0,1-44.27,27.41c-3.84,2-7.62,4.19-11.49,6.18l-5.81,3c-1.93,1-3.88,2-5.87,2.85-3.94,1.84-7.9,3.65-11.93,5.27l-6.05,2.44c-2,.77-4.09,1.49-6.13,2.24s-4.08,1.5-6.14,2.2l-6.21,2c-4.11,1.39-8.32,2.52-12.5,3.7-1,.29-2.08.6-3.14.87l-3.16.77c-2.12.5-4.22,1-6.34,1.51-4.24.95-8.51,1.76-12.79,2.5l-.22-.76c4-1.75,8-3.32,12-4.95l12-4.89c8-3.3,15.88-6.57,23.74-10,3.93-1.7,7.86-3.41,11.76-5.17s7.82-3.47,11.75-5.17,7.81-3.52,11.74-5.23,7.77-3.62,11.64-5.46A469.13,469.13,0,0,0,778,373.8l5.43-3.46,5.35-3.59c1.78-1.2,3.59-2.38,5.34-3.6l5.27-3.68,2.64-1.85a25.5,25.5,0,0,0,2.43-1.94,49.08,49.08,0,0,0,4.48-4.41,47.81,47.81,0,0,0,7.11-10.39l0,.09a16.09,16.09,0,0,0,.66-10.68,10.51,10.51,0,0,0-2.85-4.55,11.83,11.83,0,0,0-4.81-2.65Z"/></svg>